<?xml version="1.0" standalone="no"?>
<!DOCTYPE svg PUBLIC "-//W3C//DTD SVG 20010904//EN"
 "http://www.w3.org/TR/2001/REC-SVG-20010904/DTD/svg10.dtd">
<svg version="1.0" xmlns="http://www.w3.org/2000/svg"
 width="700.000000pt" height="700.000000pt" viewBox="0 0 700.000000 700.000000"
 preserveAspectRatio="xMidYMid meet">
<metadata>
Created by potrace 1.14, written by Peter Selinger 2001-2017
</metadata>
<g transform="translate(0.000000,700.000000) scale(0.100000,-0.100000)"
fill="#000000" stroke="none">
<path d="M0 3500 l0 -3500 3500 0 3500 0 0 3500 0 3500 -3500 0 -3500 0 0
-3500z m5257 2548 l92 -22 102 23 103 23 63 -68 c34 -38 62 -72 63 -75 0 -3
45 -23 99 -45 112 -43 111 -41 111 -170 0 -57 4 -67 51 -140 28 -43 53 -84 56
-91 3 -8 -20 -52 -51 -98 -39 -60 -56 -95 -56 -117 0 -18 -3 -63 -6 -99 l-7
-66 -91 -32 c-86 -32 -95 -38 -166 -113 l-75 -80 -100 25 -100 26 -100 -25
-100 -24 -30 32 c-16 18 -48 54 -70 79 -34 39 -55 52 -136 83 l-96 37 -6 100
-6 100 -56 85 -55 84 56 84 c55 83 56 85 64 181 5 53 11 99 15 103 3 3 45 21
93 38 81 30 92 38 156 108 39 42 75 76 80 76 6 0 52 -10 103 -22z m13 -1451
c41 -10 112 -36 158 -57 176 -83 260 -222 291 -480 14 -112 14 -1177 1 -1290
-46 -368 -206 -515 -600 -550 -66 -6 -486 -10 -982 -10 l-868 0 0 1010 0 1010
-330 0 -330 0 0 -1010 0 -1010 -245 0 -245 0 0 393 c0 217 -3 671 -7 1010 l-6
617 -484 0 -483 0 0 195 0 195 2028 -3 c1894 -3 2032 -4 2102 -20z"/>
<path d="M5425 5549 l-167 -152 -57 57 c-65 65 -97 72 -130 30 -12 -15 -21
-32 -21 -38 0 -6 42 -50 92 -99 69 -64 99 -87 116 -85 13 2 106 78 217 178
163 146 195 179 195 202 0 28 -31 58 -62 58 -9 0 -92 -68 -183 -151z"/>
<path d="M3770 3420 l0 -811 643 3 c607 3 644 4 680 22 49 24 89 64 113 113
18 36 19 72 22 652 3 695 4 679 -72 755 -72 72 -48 70 -753 73 l-633 4 0 -811z"/>
</g>
</svg>
